<svg width="29" height="44" viewBox="0 0 29 44" fill="none" xmlns="http://www.w3.org/2000/svg">
<path fill-rule="evenodd" clip-rule="evenodd" d="M20.7999 0.167122C20.4331 0.0112296 20.0209 0.0106502 19.6537 0.165511C19.2865 0.320371 18.9945 0.618007 18.8416 0.99304L16.7635 6.10392C16.627 6.47588 16.6369 6.88756 16.7912 7.25219C16.9455 7.61682 17.2321 7.90593 17.5906 8.05861C17.9492 8.21128 18.3517 8.21558 18.7132 8.07061C19.0748 7.92564 19.3673 7.64272 19.529 7.28147L21.6071 2.17059C21.7595 1.79536 21.7601 1.3736 21.6087 0.99795C21.4573 0.622298 21.1664 0.323476 20.7999 0.167122ZM28.1032 0.179388C27.9231 0.0977432 27.729 0.0532329 27.5321 0.0484038C27.3351 0.0435747 27.1392 0.0785216 26.9554 0.151245C26.7717 0.223968 26.6038 0.333041 26.4613 0.472223C26.3188 0.611405 26.2045 0.777965 26.125 0.962375L19.2333 16.9369C18.838 16.8215 18.438 16.724 18.0344 16.6446L10.5332 0.909222C10.4468 0.728274 10.3265 0.566496 10.1791 0.433123C10.0316 0.29975 9.85996 0.197395 9.67386 0.131901C9.48775 0.0664082 9.29086 0.0390595 9.09442 0.0514164C8.89799 0.0637734 8.70585 0.115594 8.52899 0.20392C8.1718 0.382303 7.89851 0.69855 7.76923 1.08309C7.70521 1.2735 7.67848 1.47494 7.69056 1.67591C7.70264 1.87688 7.75329 2.07346 7.83962 2.25441L14.6015 16.434C13.321 16.5201 12.0592 16.7942 10.8549 17.2477L2.86213 0.896955C2.77861 0.709606 2.65905 0.541389 2.51059 0.402343C2.36214 0.263296 2.18783 0.156268 1.99807 0.087645C1.8083 0.0190219 1.60697 -0.00979054 1.40609 0.00292705C1.2052 0.0156446 1.00888 0.0696316 0.828828 0.161667C0.64878 0.253702 0.488697 0.381899 0.35813 0.53861C0.227564 0.695321 0.129188 0.877334 0.0688736 1.07379C0.0085591 1.27025 -0.0124588 1.47712 0.00707438 1.68207C0.0266076 1.88701 0.0862914 2.08584 0.182565 2.26667L8.17531 18.6215C5.69861 20.2642 3.81695 22.6927 2.81892 25.5346C1.82088 28.3765 1.76158 31.475 2.65011 34.3547C3.53864 37.2344 5.32593 39.7364 7.73789 41.477C10.1498 43.2176 13.0533 44.1007 16.0029 43.9909C18.9526 43.881 21.7856 42.7842 24.0674 40.8688C26.3493 38.9534 27.954 36.325 28.6355 33.3868C29.317 30.4486 29.0377 27.3628 27.8403 24.6026C26.6429 21.8425 24.5937 19.5604 22.0068 18.1063L28.8705 2.20125C29.0311 1.8293 29.0406 1.40734 28.8971 1.02818C28.7536 0.649014 28.4688 0.343701 28.1052 0.179388" fill="black"/>
</svg>
